<svg version="1.1" xmlns="http://www.w3.org/2000/svg" style="display: block;" viewBox="0 0 2048 2048" width="1024" height="1024" preserveAspectRatio="none">
<path transform="translate(0,0)" fill="rgb(7,99,56)" d="M 990.429 407.601 C 1330.98 389.078 1621.99 650.282 1640.24 990.845 C 1658.49 1331.41 1397.06 1622.22 1056.48 1640.19 C 716.285 1658.15 425.88 1397.07 407.651 1056.89 C 389.423 716.716 650.266 426.102 990.429 407.601 z M 1015.51 1596.84 C 1331.32 1601.44 1591.37 1349.74 1597.07 1033.95 C 1602.77 718.151 1351.97 457.231 1036.2 450.434 C 718.865 443.604 456.376 695.907 450.65 1013.26 C 444.924 1330.61 698.138 1592.22 1015.51 1596.84 z"/>
<path transform="translate(0,0)" fill="rgb(198,163,79)" d="M 1335.17 838.935 C 1346.36 846.39 1376.87 882.504 1386.36 893.857 C 1410.56 893.623 1440.86 894.911 1464.4 892.963 C 1466.26 912.377 1464.68 949.972 1465.04 971.533 C 1482.7 988.916 1500.07 1006.59 1517.14 1024.56 C 1500.05 1039.33 1481.09 1059.86 1465.09 1076.33 C 1464.85 1102.3 1465.04 1128.28 1465.66 1154.25 C 1441.04 1155.41 1413.42 1153.91 1387.54 1154.89 C 1371.81 1170.12 1350.88 1193.56 1336.52 1210.06 C 1319.81 1194.14 1302.44 1171.87 1285.11 1154.57 C 1268.01 1153.81 1221.77 1153.55 1205.57 1154.8 L 1205.93 1076.68 C 1199.77 1069.85 1190.21 1060.56 1185.24 1053.48 C 1176.67 1060.99 1164.47 1074.31 1155.47 1082.98 C 1154.2 1111.99 1155.61 1147.2 1156.13 1176.45 C 1132.78 1175.49 1105.39 1176.5 1081.17 1176.01 C 1072.23 1186.02 1062.92 1195.7 1053.27 1205.04 C 1060.84 1212.49 1069.04 1221.42 1076.44 1229.16 L 1154.04 1229.07 L 1154.12 1306.46 C 1171.02 1323.72 1189.18 1342.19 1206.61 1358.8 C 1197.83 1368.4 1188.48 1377.6 1179.3 1386.84 C 1170.53 1395.89 1163.02 1403.05 1153.68 1411.52 C 1153.81 1437.58 1155.27 1464.7 1154.9 1490.23 C 1130.29 1491.15 1100.44 1490.16 1075.15 1490.3 L 1024.08 1545.68 C 1010.2 1532.31 982.347 1498.87 970.276 1489.97 L 893.499 1490.03 C 892.918 1464.14 893.845 1438.39 893.044 1412.43 C 877.066 1395 855.158 1376.03 841.146 1359.45 C 857.325 1342.96 880.561 1322.46 894.604 1305.81 C 892.591 1288.55 893.734 1248.45 893.636 1229.04 L 971.337 1229.01 C 1002.15 1200.38 1032.77 1163.39 1064.83 1133.08 C 1079.91 1132.5 1097.8 1133 1113.09 1133.05 C 1113.04 1111.31 1112.45 1086.89 1113.44 1065.37 C 1142.27 1038.86 1178.42 1000.03 1206.09 971.528 C 1206.23 945.403 1205.18 919.485 1205.47 893.26 L 1285.61 893.067 C 1302.57 876.379 1317.7 855.983 1335.17 838.935 z M 990.15 1271.83 C 976.76 1274.08 950.283 1272.46 935.773 1273.01 C 935.494 1288.5 935.754 1308.64 936.471 1324.25 C 932.229 1331.51 909.43 1350.65 901.863 1358.56 C 913.395 1370.8 925.115 1382.85 937.021 1394.72 C 935.795 1411.82 935.914 1429.67 936.331 1446.83 C 952.227 1446.6 974.81 1445.66 990.156 1446.77 C 1002.03 1458.39 1012.12 1470.33 1024.36 1481.95 C 1033.12 1472.38 1049.01 1453.88 1058.19 1446.54 C 1075.87 1446.77 1093.55 1446.9 1111.23 1446.94 C 1111.13 1431.38 1110.39 1408.74 1111.98 1393.86 C 1122.34 1383.24 1135.63 1370.42 1145.21 1359.5 C 1137.35 1351.41 1117.42 1331.8 1112.08 1323.52 C 1111.82 1307.09 1111.33 1288.56 1111.95 1272.18 C 1094.43 1272.44 1076.91 1272.6 1059.38 1272.64 C 1050.2 1266.13 1027.4 1238.62 1023.91 1236.67 C 1013.32 1248.13 1001.58 1261.23 990.15 1271.83 z M 1213.85 1024.73 C 1222.05 1032.61 1242.51 1051.89 1248.76 1060.08 C 1249.04 1077.11 1249.1 1094.15 1248.94 1111.19 C 1266.53 1110.94 1286.13 1110.59 1303.63 1111.17 C 1309.43 1117.18 1332.01 1145.27 1336.81 1145.49 L 1337.85 1144.87 C 1346.44 1134.48 1359.86 1119.97 1369.64 1110.88 C 1387.42 1110.73 1405.16 1111.07 1422.92 1111.02 C 1422.67 1094.16 1422.13 1075.95 1422.44 1059.14 C 1434.06 1047.35 1445.94 1035.94 1457.59 1024.24 C 1445.9 1011.18 1435.28 1001.89 1423.17 989.676 C 1422.89 971.864 1422.84 954.049 1423.01 936.236 C 1407.46 936.324 1383.53 937.09 1368.68 935.855 C 1362.11 930.056 1338.4 903.132 1334.82 901.488 C 1328.02 910.308 1311.69 927.975 1303.46 936.037 C 1285.27 936.268 1267.07 936.254 1248.87 935.995 C 1248.89 953.207 1249.18 971.097 1248.92 988.248 C 1237.56 1001.01 1224.75 1012.22 1213.85 1024.73 z"/>
<path transform="translate(0,0)" fill="rgb(198,163,79)" d="M 710.877 838.629 C 713.88 840.247 716.695 844.169 719.15 846.216 C 730.334 855.544 752.002 886.394 762.259 893.582 C 779.774 892.517 823.475 892.525 841.816 893.595 L 842.038 971.051 C 863.2 994.548 886.481 1016.87 908.196 1039.94 C 916.641 1048.92 926.881 1057.77 934.714 1067.05 C 935.793 1089.35 933.275 1109.78 934.982 1132.81 C 950.882 1132.71 967.326 1132.39 983.168 1132.98 C 992.069 1141.05 998.964 1147.54 1006.01 1157.24 C 996.7 1166.43 986.944 1177.47 977.4 1187.13 C 972.601 1182.57 970.163 1179.95 964.339 1176.61 C 944.096 1175.72 912.215 1175.83 891.921 1176.65 C 891.403 1146.88 892.984 1112.8 891.038 1083.46 C 881.673 1072.35 872.587 1064.6 862.806 1051.9 C 855.565 1058.87 846.517 1069.79 840.081 1077.55 L 839.934 1090.44 C 840.414 1112.08 840.252 1132.92 841.005 1154.79 C 814.897 1155.24 788.178 1153.66 762.243 1155.08 C 749.79 1167.32 722.57 1196.95 711.461 1210.27 C 695.176 1193.07 677.328 1173 661.725 1155.12 C 639.139 1153.74 605.961 1154.26 582.954 1154.57 C 582.122 1128.55 583.303 1102.18 582.248 1075.82 C 564.847 1058.46 548.564 1042.19 531.9 1024.12 C 539.413 1014.22 571.962 982.356 582.611 970.887 C 582.292 945.033 582.15 919.177 582.185 893.321 C 606.598 894.142 635.634 893.247 660.347 893.131 C 675.962 879.426 694.697 854.579 710.877 838.629 z M 677.986 935.787 C 660.099 935.027 642.813 935.225 624.941 935.191 C 624.942 951.59 625.647 974.113 624.744 990.013 C 613.333 1000.78 600.245 1012.84 589.991 1024.61 C 601.326 1035.72 613.463 1048.29 624.903 1058.96 C 625.115 1075.76 624.385 1094.53 624.946 1110.79 C 640.342 1109.87 662.017 1110.47 677.83 1110.62 C 688.238 1119.27 704.364 1140.08 712.469 1145.91 C 754.548 1100.81 738.642 1111.4 799.02 1110.97 C 798.925 1094.28 798.313 1074.81 798.842 1058.35 C 810.555 1047.07 822.094 1035.62 833.455 1023.99 C 822.238 1012.28 810.787 1000.79 799.11 989.544 C 798.886 971.773 798.871 954 799.068 936.228 C 784.616 936.325 759.886 937.464 746.327 936.613 C 735.686 927.991 718.752 906.602 710.686 900.612 C 703.34 909.807 686.748 928.58 677.986 935.787 z"/>
<path transform="translate(0,0)" fill="rgb(198,163,79)" d="M 1031.43 492.334 L 1032.37 492.483 L 1031.97 494.185 C 1013.26 506.461 1002.66 517.721 1000.6 541.579 C 997.957 572.193 1025.05 602.046 1055.89 602.026 C 1073.36 602.014 1085.67 596.145 1098.41 583.942 C 1080.9 613.416 1069.99 623.828 1034.57 627.375 C 1065.87 709.433 1232.29 704.046 1248.18 869.024 L 1204.12 869.094 C 1203.47 862.835 1202.5 856.614 1201.21 850.454 C 1185.59 776.767 1112.23 748.869 1055.51 712.174 C 1044 704.132 1034.13 696.426 1023.27 687.655 C 956.78 749.269 853.4 761.543 843.458 869.056 C 830.531 869.077 813.178 867.911 800.814 869.054 C 800.623 849.813 806.215 828.401 813.661 810.874 C 838.121 751.965 893.383 720.498 946.087 690.603 C 975.096 674.148 1002.82 656.992 1014.18 624.22 C 1003.01 618.08 993.758 613.079 985.48 603.09 C 955.929 567.431 969.213 513.553 1012.98 497.025 C 1019.33 494.626 1024.77 493.621 1031.43 492.334 z"/>
<path transform="translate(0,0)" fill="rgb(198,163,79)" d="M 1167.2 508.592 C 1177.81 512.124 1187.99 514.231 1199.49 518.355 C 1262.92 540.778 1321.66 574.706 1372.78 618.437 C 1465.87 699.293 1528.43 809.606 1550.06 930.994 C 1554.8 956.977 1556.26 976.188 1558.22 1002.64 C 1552.1 999.306 1515.68 963.726 1512 956.824 C 1509.55 952.23 1501.69 908.796 1498.99 898.601 C 1486.51 852.902 1467.67 809.185 1443.01 768.735 C 1394.62 689.987 1325.25 626.272 1242.68 584.731 C 1222.97 574.814 1196.74 563.521 1175.33 558.274 C 1174.46 541.464 1171.73 524.803 1167.2 508.592 z"/>
<path transform="translate(0,0)" fill="rgb(198,163,79)" d="M 879.185 509.551 L 879.971 510.493 C 874.277 531.886 874.901 538.641 871.642 557.926 C 735.049 599.812 619.417 710.188 567.332 843.108 C 558.59 865.416 552.139 888.297 545.484 911.107 C 542.815 920.254 538.67 951.691 535.54 956.184 C 525.822 970.136 504.606 989.193 491.882 1001.71 C 491.48 1001.16 491.078 1000.61 490.676 1000.06 C 489.529 913.651 529.601 805.366 575.911 733.506 C 634.921 642.994 719.57 572.123 819.046 529.944 C 837.057 522.417 860.153 513.655 879.185 509.551 z"/>
<path transform="translate(0,0)" fill="rgb(198,163,79)" d="M 798.81 1508.23 C 754.621 1485.8 725.717 1470.11 686.816 1438.56 C 586.297 1356.57 518.77 1241.03 496.659 1113.21 C 491.806 1085.72 492.891 1069.81 490.16 1044.62 L 490.012 1043.34 C 504.307 1058.88 521.101 1072.6 534.375 1088.9 C 538.665 1094.16 539.737 1111.87 541.639 1119.32 C 546.834 1139.66 551.02 1161.8 557.939 1181.59 C 593.075 1281.07 658.669 1366.96 745.402 1427.04 C 759.422 1436.78 783.652 1452.17 798.983 1459.5 L 798.81 1508.23 z"/>
<path transform="translate(0,0)" fill="rgb(198,163,79)" d="M 1558.21 1044.2 C 1556.11 1073.76 1553.98 1101.11 1548.02 1130.35 C 1523.93 1245.16 1463.27 1349.07 1375.14 1426.49 C 1333.17 1462.83 1299.82 1482.99 1250.34 1507.5 C 1249.28 1493.46 1251.25 1472.19 1249.52 1458.99 C 1254.57 1456.32 1259.63 1453.61 1264.62 1450.83 C 1370.48 1392.04 1457.37 1285.52 1493.09 1169.64 C 1496.84 1157.24 1500.33 1144.75 1503.54 1132.19 C 1505.83 1123.01 1510.88 1093.03 1514.93 1087.84 C 1525.45 1074.36 1545.34 1056.49 1558.21 1044.2 z"/>
<path transform="translate(0,0)" fill="rgb(222,199,156)" d="M 1022 741.642 C 1022.86 741.848 1092.74 786.824 1098.68 791.138 C 1105.9 796.318 1112.68 802.097 1118.94 808.415 C 1161.38 851.561 1156.9 905.354 1156.56 961.903 C 1153.39 964.784 1149.99 968.354 1147.1 971.568 C 1136.2 983.723 1123.34 994.555 1112.84 1007 C 1113.38 986.826 1113.04 964.184 1113.01 943.85 C 1112.97 923.647 1114.6 894.881 1110.11 876.097 C 1101.1 838.368 1061.7 817.616 1030.56 799.033 C 1027.69 797.05 1027.88 797.158 1024.47 796.365 C 1014.88 797.968 1009.86 804.377 1002.47 808.603 C 985.883 818.098 972.65 825.862 958.87 839.318 C 928.748 868.731 933.529 900.137 933.808 938.567 C 934.01 960.572 934.064 982.578 933.971 1004.58 C 925.531 997.792 900.263 970.306 893.128 961.236 C 892.314 936.161 893.005 907.94 893.322 882.663 C 893.466 871.092 898.717 855.218 903.453 844.621 C 926.342 793.411 980.661 777.729 1022 741.642 z"/>
<path transform="translate(0,0)" fill="rgb(222,199,156)" d="M 1205.01 1179.56 C 1217.26 1180.31 1235.95 1179.77 1248.72 1179.77 C 1249.08 1185.05 1249.18 1190.59 1249.12 1195.88 C 1248.58 1244.47 1249.63 1293.03 1249.94 1341.58 C 1242.67 1337.58 1213.1 1306.18 1206.2 1298.53 L 1206.09 1297.67 C 1204.4 1285.08 1205 1265.88 1205 1252.66 L 1205.01 1179.56 z"/>
<path transform="translate(0,0)" fill="rgb(222,199,156)" d="M 798.406 1179.28 C 810.75 1178.65 828.522 1179.18 841.147 1179.43 L 840.946 1298.24 C 835.739 1304.77 826.358 1313.8 820.29 1319.99 C 812.564 1327.75 805.205 1334.95 798.134 1343.34 C 799.859 1328.24 798.984 1300.46 798.931 1284.21 L 798.406 1179.28 z"/>
<path transform="translate(0,0)" fill="rgb(222,199,156)" d="M 1206.28 1419.42 C 1219.77 1405.25 1235.57 1390.58 1249.72 1376.87 C 1248.9 1385.45 1249.17 1400.55 1249.15 1409.59 C 1249.1 1425.53 1248.66 1443.23 1249.52 1458.99 C 1251.25 1472.19 1249.28 1493.46 1250.34 1507.5 C 1236.06 1514.11 1220.1 1521.16 1205.44 1526.69 C 1204.57 1502.54 1205.65 1477.97 1205.27 1453.77 C 1205.09 1442.32 1205.33 1430.83 1206.28 1419.42 z"/>
<path transform="translate(0,0)" fill="rgb(222,199,156)" d="M 798.127 1377.15 C 812.584 1391.5 826.907 1405.99 841.094 1420.62 C 841.676 1455.92 841.319 1491.66 842.12 1526.84 C 825.994 1521.22 812.727 1513.41 798.81 1508.23 L 798.983 1459.5 C 798.905 1432.66 799.143 1403.88 798.127 1377.15 z"/>
<path transform="translate(0,0)" fill="rgb(0,0,0)" fill-opacity="0.0117647" d="M 926.08 1047.76 L 926.318 1047.76 C 925.889 1049.89 923.802 1050.7 921.513 1052.45 C 921.251 1050.05 921.167 1051.22 922.199 1048.96 L 926.08 1047.76 z"/>
<path transform="translate(0,0)" fill="rgb(0,0,0)" fill-opacity="0.0196078" d="M 1244.12 514.338 L 1245.24 514.118 L 1245.81 514.897 L 1243.1 518.477 C 1241.5 516.052 1241.76 517.318 1241.55 514.713 L 1244.12 514.338 z"/>
<path transform="translate(0,0)" fill="rgb(0,0,0)" fill-opacity="0.0117647" d="M 1343.45 570.53 L 1344.78 569.807 L 1345.88 570.444 L 1344.82 573.49 L 1341.64 571.219 L 1343.45 570.53 z"/>
</svg>